<svg xmlns="http://www.w3.org/2000/svg" width="28" height="28" viewBox="0 0 28 28" fill="none"><path d="M14.9402 14.875L13.3853 16.4298C13.2238 16.5914 13.1449 16.7925 13.1486 17.0333C13.1524 17.2741 13.235 17.4753 13.3965 17.6368C13.5581 17.7984 13.7617 17.8791 14.0075 17.8791C14.2533 17.8791 14.4557 17.7984 14.6148 17.6368L17.5135 14.7381C17.7244 14.5272 17.8298 14.2812 17.8298 14C17.8298 13.7188 17.7244 13.4728 17.5135 13.2619L14.6036 10.3519C14.442 10.1904 14.2409 10.1096 14.0001 10.1096C13.7593 10.1096 13.5581 10.1904 13.3965 10.3519C13.235 10.5135 13.1542 10.7171 13.1542 10.9629C13.1542 11.2087 13.235 11.4111 13.3965 11.5702L14.9402 13.125H10.5001C10.2521 13.125 10.0443 13.2089 9.87664 13.3767C9.70894 13.5445 9.62508 13.7524 9.62508 14.0004C9.62508 14.2484 9.70894 14.4562 9.87664 14.6237C10.0443 14.7912 10.2521 14.875 10.5001 14.875H14.9402ZM14.002 25.0833C12.4691 25.0833 11.0282 24.7924 9.67939 24.2106C8.33055 23.6289 7.15725 22.8393 6.1595 21.842C5.16173 20.8447 4.37182 19.6719 3.78979 18.3237C3.20776 16.9754 2.91675 15.5349 2.91675 14.0019C2.91675 12.469 3.20764 11.0282 3.78942 9.67933C4.37119 8.33049 5.16073 7.15719 6.15804 6.15944C7.15536 5.16167 8.32815 4.37176 9.67639 3.78973C11.0246 3.2077 12.4652 2.91669 13.9981 2.91669C15.531 2.91669 16.9719 3.20758 18.3207 3.78936C19.6696 4.37113 20.8429 5.16067 21.8406 6.15798C22.8384 7.1553 23.6283 8.32809 24.2103 9.67633C24.7923 11.0245 25.0834 12.4651 25.0834 13.998C25.0834 15.531 24.7925 16.9718 24.2107 18.3207C23.6289 19.6695 22.8394 20.8428 21.8421 21.8405C20.8447 22.8383 19.672 23.6282 18.3237 24.2103C16.9755 24.7923 15.5349 25.0833 14.002 25.0833ZM14.0001 23.3333C16.6056 23.3333 18.8126 22.4292 20.6209 20.6208C22.4292 18.8125 23.3334 16.6055 23.3334 14C23.3334 11.3944 22.4292 9.18749 20.6209 7.37916C18.8126 5.57083 16.6056 4.66666 14.0001 4.66666C11.3945 4.66666 9.18755 5.57083 7.37922 7.37916C5.57089 9.18749 4.66672 11.3944 4.66672 14C4.66672 16.6055 5.57089 18.8125 7.37922 20.6208C9.18755 22.4292 11.3945 23.3333 14.0001 23.3333Z" fill="#B4C0CC"/></svg>