<svg xmlns="http://www.w3.org/2000/svg" width="16" height="16" viewBox="0 0 16 16" fill="none"><path d="M7.99944 7.99996C7.85771 7.99996 7.73898 7.95204 7.64326 7.85621C7.54754 7.76037 7.49967 7.64163 7.49967 7.49997V2.11536C7.49967 1.97369 7.54761 1.85494 7.64347 1.75911C7.73935 1.66327 7.85815 1.61536 7.99987 1.61536C8.14161 1.61536 8.26034 1.66327 8.35606 1.75911C8.45178 1.85494 8.49964 1.97369 8.49964 2.11536V7.49997C8.49964 7.64163 8.45171 7.76037 8.35584 7.85621C8.25996 7.95204 8.14116 7.99996 7.99944 7.99996ZM8.00002 13.6666C7.21346 13.6666 6.47659 13.5179 5.78941 13.2204C5.10223 12.923 4.50309 12.5187 3.99197 12.0076C3.48087 11.4965 3.07661 10.8975 2.77917 10.2105C2.48173 9.52345 2.33301 8.78661 2.33301 7.99996C2.33301 7.335 2.44732 6.69163 2.67596 6.06984C2.90459 5.44804 3.23216 4.8833 3.65866 4.37561C3.74954 4.25852 3.8652 4.20275 4.00566 4.20831C4.14611 4.21386 4.2712 4.2715 4.38091 4.38121C4.47375 4.47405 4.51462 4.58586 4.50351 4.71662C4.4924 4.84739 4.44411 4.97132 4.35864 5.08841C4.02445 5.49695 3.76996 5.95187 3.59517 6.45316C3.42039 6.95443 3.33299 7.47003 3.33299 7.99996C3.33299 9.29996 3.78577 10.4027 4.69132 11.3083C5.59688 12.2138 6.69966 12.6666 7.99966 12.6666C9.29966 12.6666 10.4024 12.2138 11.308 11.3083C12.2135 10.4027 12.6663 9.29996 12.6663 7.99996C12.6663 7.46519 12.5806 6.94496 12.4093 6.43927C12.2379 5.93357 11.9783 5.47645 11.6304 5.06789C11.545 4.95765 11.4967 4.8377 11.4856 4.70806C11.4744 4.57842 11.515 4.46761 11.6073 4.37561C11.7108 4.27218 11.8323 4.21877 11.9721 4.21536C12.1118 4.21193 12.2278 4.26535 12.3201 4.37561C12.7535 4.8833 13.0862 5.4462 13.3182 6.06431C13.5503 6.68241 13.6663 7.32762 13.6663 7.99996C13.6663 8.78661 13.5176 9.52345 13.2201 10.2105C12.9227 10.8975 12.5184 11.4965 12.0073 12.0076C11.4962 12.5187 10.8972 12.923 10.2103 13.2204C9.52334 13.5179 8.78659 13.6666 8.00002 13.6666Z" fill="#9AA7B3"/></svg>