<svg width="16" height="16" viewBox="0 0 16 16" fill="none" xmlns="http://www.w3.org/2000/svg"><path d="M5.36655 5.43327C5.26655 5.33327 5.21655 5.21105 5.21655 5.0666C5.21655 4.92216 5.26655 4.79994 5.36655 4.69993L7.64989 2.4166C7.70544 2.36105 7.761 2.32216 7.81655 2.29993C7.87211 2.27771 7.93322 2.2666 7.99989 2.2666C8.05544 2.2666 8.11378 2.27771 8.17489 2.29993C8.236 2.32216 8.29433 2.36105 8.34989 2.4166L10.6332 4.69993C10.7332 4.79994 10.7832 4.92216 10.7832 5.0666C10.7832 5.21105 10.7332 5.33327 10.6332 5.43327C10.5332 5.53327 10.411 5.58327 10.2666 5.58327C10.1221 5.58327 9.99989 5.53327 9.89989 5.43327L7.99989 3.53327L6.09989 5.43327C5.99989 5.53327 5.87766 5.58327 5.73322 5.58327C5.58877 5.58327 5.46655 5.53327 5.36655 5.43327ZM7.99989 13.7999C7.94433 13.7999 7.886 13.7888 7.82489 13.7666C7.76378 13.7444 7.70544 13.7055 7.64989 13.6499L5.36655 11.3666C5.26655 11.2666 5.21655 11.1444 5.21655 10.9999C5.21655 10.8555 5.26655 10.7333 5.36655 10.6333C5.46655 10.5333 5.58877 10.4833 5.73322 10.4833C5.87766 10.4833 5.99989 10.5333 6.09989 10.6333L7.99989 12.5333L9.89989 10.6333C9.99989 10.5333 10.1221 10.4833 10.2666 10.4833C10.411 10.4833 10.5332 10.5333 10.6332 10.6333C10.7332 10.7333 10.7832 10.8555 10.7832 10.9999C10.7832 11.1444 10.7332 11.2666 10.6332 11.3666L8.34989 13.6499C8.29433 13.7055 8.23878 13.7444 8.18322 13.7666C8.12766 13.7888 8.06655 13.7999 7.99989 13.7999Z" fill="#647280"/></svg>