<svg xmlns="http://www.w3.org/2000/svg" width="10" height="10" viewBox="0 0 10 10" fill="none"><path d="M3.74226 6.4525L4.63713 8.3835C4.78037 8.69258 5.21975 8.69258 5.36298 8.3835L6.25782 6.4525C6.29764 6.36658 6.36664 6.29757 6.45256 6.25776L8.38356 5.36292C8.69264 5.21969 8.69265 4.78031 8.38356 4.63707L6.45256 3.7422C6.36664 3.70239 6.29764 3.63338 6.25782 3.54746L5.36298 1.61646C5.21975 1.30738 4.78037 1.30737 4.63713 1.61646L3.74226 3.54746C3.70245 3.63338 3.63344 3.70238 3.54753 3.7422L1.61652 4.63707C1.30744 4.78031 1.30744 5.21969 1.61653 5.36292L3.54752 6.25776C3.63344 6.29757 3.70245 6.36658 3.74226 6.4525Z" fill="url(#paint0_linear_265_85)"/><defs><linearGradient id="paint0_linear_265_85" x1="0.833374" y1="5.08168" x2="9.16671" y2="5.08168" gradientUnits="userSpaceOnUse"><stop stop-color="#0578FF"/><stop offset="1" stop-color="#DB00FF"/></linearGradient></defs></svg>