<svg xmlns="http://www.w3.org/2000/svg" width="20" height="20" viewBox="0 0 20 20" fill="none"><path d="M10.8833 9.99999L17 3.88333C17.2416 3.64166 17.2416 3.24166 17 2.99999C16.7583 2.75833 16.3583 2.75833 16.1166 2.99999L9.99998 9.11666L3.88331 2.99166C3.64164 2.74999 3.24164 2.74999 2.99998 2.99166C2.75831 3.23333 2.75831 3.63333 2.99998 3.87499L9.11664 9.99999L2.99998 16.1167C2.75831 16.3583 2.75831 16.7583 2.99998 17C3.12498 17.125 3.28331 17.1833 3.44164 17.1833C3.59998 17.1833 3.75831 17.125 3.88331 17L9.99998 10.8833L16.1166 17C16.2416 17.125 16.4 17.1833 16.5583 17.1833C16.7166 17.1833 16.875 17.125 17 17C17.2416 16.7583 17.2416 16.3583 17 16.1167L10.8833 9.99999Z" fill="#4B5966"/></svg>