<svg xmlns="http://www.w3.org/2000/svg" width="20" height="20" viewBox="0 0 20 20" fill="none"><path d="M17.6667 11L17.1417 10.6833C17.1667 10.4583 17.175 10.2333 17.175 10C17.175 9.76667 17.1583 9.54167 17.1417 9.31667L17.6667 9C18.4583 8.525 18.7083 7.5 18.2333 6.70833L16.7417 4.24167C16.425 3.725 15.875 3.43333 15.3167 3.43333C15.025 3.43333 14.725 3.50833 14.4583 3.675L13.9333 3.99167C13.675 3.81667 13.3917 3.66667 13.1083 3.53333V2.91667C13.1083 2 12.3583 1.25 11.4417 1.25H8.55832C7.64165 1.25 6.89165 2 6.89165 2.91667V3.525C6.59999 3.66667 6.32499 3.81667 6.05832 3.99167L5.54165 3.675C5.27499 3.50833 4.97499 3.43333 4.68332 3.43333C4.11665 3.43333 3.56665 3.71667 3.25832 4.24167L1.76665 6.70833C1.29165 7.5 1.54165 8.525 2.33332 9L2.84165 9.30833C2.81665 9.53333 2.79999 9.76667 2.79999 10C2.79999 10.2333 2.81665 10.4667 2.83332 10.6917L2.33332 11C1.54165 11.475 1.29165 12.5 1.76665 13.2917L3.25832 15.7583C3.57499 16.275 4.12499 16.5667 4.68332 16.5667C4.97499 16.5667 5.27499 16.4917 5.54165 16.325L6.05832 16.0167C6.32499 16.1917 6.59999 16.3417 6.89165 16.4833V17.0917C6.89165 18.0083 7.64165 18.7583 8.55832 18.7583H11.4417C12.3583 18.7583 13.1083 18.0083 13.1083 17.0917V16.475C13.3917 16.3417 13.6667 16.1833 13.9333 16.0167L14.4583 16.3333C14.725 16.5 15.025 16.575 15.3167 16.575C15.8833 16.575 16.4333 16.2917 16.7417 15.7667L18.2333 13.3C18.7083 12.5 18.4583 11.475 17.6667 11ZM17.1667 12.6417L15.675 15.1083C15.6 15.2333 15.4667 15.3083 15.3167 15.3083C15.2417 15.3083 15.1667 15.2917 15.1 15.25L14.575 14.9333C14.375 14.8167 14.15 14.75 13.925 14.75C13.6833 14.75 13.45 14.8167 13.2417 14.9583C13.0417 15.0917 12.8167 15.2167 12.5583 15.3417C12.125 15.55 11.85 15.9917 11.85 16.4667V17.0833C11.85 17.3167 11.6667 17.5 11.4333 17.5H8.54999C8.31665 17.5 8.13332 17.3167 8.13332 17.0833V16.475C8.13332 15.9917 7.85832 15.5583 7.42499 15.35C7.16665 15.225 6.94165 15.1 6.74165 14.9667C6.53332 14.8333 6.29165 14.7583 6.05832 14.7583C5.83332 14.7583 5.60832 14.8167 5.40832 14.9417L4.89999 15.25C4.83332 15.2917 4.75832 15.3083 4.68332 15.3083C4.53332 15.3083 4.39999 15.2333 4.32499 15.1083L2.83332 12.6417C2.71665 12.4417 2.77499 12.1917 2.97499 12.0667L3.48332 11.7583C3.89165 11.5083 4.12499 11.05 4.08332 10.5667C4.05832 10.3667 4.04999 10.1833 4.04999 10C4.04999 9.81667 4.05832 9.63333 4.08332 9.425C4.13332 8.95 3.89999 8.48333 3.48332 8.23333L2.97499 7.925C2.84999 7.85 2.79999 7.73333 2.78332 7.675C2.77499 7.60833 2.75832 7.48333 2.83332 7.35833L4.32499 4.89167C4.39999 4.76667 4.53332 4.69167 4.68332 4.69167C4.75832 4.69167 4.83332 4.70833 4.89999 4.75L5.41665 5.05833C5.60832 5.175 5.83332 5.23333 6.05832 5.23333C6.29999 5.23333 6.53332 5.16667 6.74165 5.025C6.94165 4.89167 7.16665 4.76667 7.42499 4.64167C7.86665 4.44167 8.14165 4 8.14165 3.525V2.91667C8.14165 2.68333 8.32499 2.5 8.55832 2.5H11.4417C11.675 2.5 11.8583 2.68333 11.8583 2.91667V3.53333C11.8583 4.01667 12.1333 4.45 12.5667 4.65833C12.825 4.78333 13.05 4.90833 13.2417 5.04167C13.45 5.175 13.6917 5.25 13.925 5.25C14.15 5.25 14.375 5.19167 14.575 5.06667L15.1 4.75C15.1667 4.70833 15.2417 4.69167 15.3167 4.69167C15.4667 4.69167 15.6 4.76667 15.675 4.89167L17.1667 7.35833C17.2417 7.48333 17.2333 7.60833 17.2167 7.675C17.2 7.74167 17.1583 7.85 17.025 7.93333L16.5 8.25C16.0917 8.5 15.8583 8.95833 15.9 9.43333C15.9167 9.64167 15.925 9.825 15.925 10C15.925 10.175 15.9167 10.3583 15.9 10.5667C15.8583 11.0417 16.0833 11.5083 16.5 11.75L17.025 12.0667C17.225 12.1917 17.2833 12.45 17.1667 12.6417Z" fill="#4B5966"/><path d="M9.99999 6.25C7.92499 6.25 6.24999 7.925 6.24999 10C6.24999 12.075 7.92499 13.75 9.99999 13.75C12.075 13.75 13.75 12.075 13.75 10C13.75 7.925 12.075 6.25 9.99999 6.25ZM9.99999 12.5C8.62499 12.5 7.49999 11.375 7.49999 10C7.49999 8.625 8.62499 7.5 9.99999 7.5C11.375 7.5 12.5 8.625 12.5 10C12.5 11.375 11.375 12.5 9.99999 12.5Z" fill="#4B5966"/></svg>