<svg width="12" height="12" viewBox="0 0 12 12" fill="none" xmlns="http://www.w3.org/2000/svg"><g clip-path="url(#clip0_110_413)"><path d="M4.80843 0.47998C2.15709 0.47998 0 2.63707 0 5.28841C0 7.93975 2.15709 10.0968 4.80843 10.0968C7.45977 10.0968 9.61686 7.93975 9.61686 5.28841C9.61686 2.63707 7.45977 0.47998 4.80843 0.47998ZM4.80843 7.66006C3.5 7.66006 2.43678 6.59684 2.43678 5.28841C2.43678 3.97998 3.5 2.91676 4.80843 2.91676C6.11686 2.91676 7.18008 3.97998 7.18008 5.28841C7.18008 6.59684 6.11686 7.66006 4.80843 7.66006ZM12 10.0968C12 10.9034 11.3448 11.5585 10.5383 11.5585C9.7318 11.5585 9.07663 10.9034 9.07663 10.0968C9.07663 9.29032 9.7318 8.63515 10.5383 8.63515C11.3448 8.63515 12 9.29032 12 10.0968Z" fill="white"/></g><defs><clipPath id="clip0_110_413"><rect width="12" height="12" fill="white"/></clipPath></defs></svg>